<svg width="445" height="445" viewBox="0 0 445 445" fill="none" xmlns="http://www.w3.org/2000/svg">
<rect width="445" height="445" rx="79" fill="#F6F6F6"/>
<path d="M277.783 190.75C277.783 193.511 280.021 195.75 282.783 195.75H353C355.761 195.75 358 197.989 358 200.75V327C358 329.761 355.761 332 353 332H253.435C250.673 332 248.435 329.761 248.435 327V241.218C248.435 238.389 244.879 237.132 243.101 239.332L171.219 328.285C169.321 330.635 166.462 332 163.441 332H93C90.2386 332 88 329.761 88 327V255.68C88 253.424 88.7626 251.235 90.164 249.467L194.562 117.787C196.459 115.395 199.345 114 202.399 114H272.783C275.544 114 277.783 116.239 277.783 119V190.75Z" fill="#252424"/>
</svg>
