<svg width="396" height="396" viewBox="0 0 396 396" fill="none" xmlns="http://www.w3.org/2000/svg">
<rect width="396" height="396" rx="55" fill="#1B1B1B"/>
<path d="M243.118 170.535C243.118 173.296 245.357 175.535 248.118 175.535H304.185C306.946 175.535 309.185 177.773 309.185 180.535V282.862C309.185 285.623 306.946 287.862 304.185 287.862H223.948C221.186 287.862 218.948 285.623 218.948 282.862V214.516C218.948 211.686 215.391 210.43 213.614 212.631L155.884 284.143C153.985 286.495 151.125 287.862 148.103 287.862H91.8154C89.0539 287.862 86.8154 285.623 86.8154 282.862V225.55C86.8154 223.296 87.5768 221.109 88.9763 219.342L174.049 111.93C175.946 109.535 178.834 108.138 181.888 108.138H238.118C240.88 108.138 243.118 110.377 243.118 113.138V170.535Z" fill="#EAEAEA"/>
</svg>
